<mxfile host="app.diagrams.net" agent="Mozilla/5.0 (X11; Linux x86_64) AppleWebKit/537.36 (KHTML, like Gecko) Chrome/133.0.0.0 Safari/537.36" version="26.0.11">
  <diagram name="Page-1" id="6L_bhAC2lmHtqZpaXxJ5">
    <mxGraphModel>
      <root>
        <mxCell id="0" />
        <mxCell id="1" parent="0" />
        <mxCell id="2" value="D" style="whiteSpace=wrap;strokeWidth=2;" vertex="1" parent="1">
          <mxGeometry x="8" y="162" width="539" height="104" as="geometry" />
        </mxCell>
        <mxCell id="3" value="C" style="whiteSpace=wrap;strokeWidth=2;" vertex="1" parent="1">
          <mxGeometry x="567" y="8" width="376" height="387" as="geometry" />
        </mxCell>
        <mxCell id="4" value="B" style="whiteSpace=wrap;strokeWidth=2;" vertex="1" parent="1">
          <mxGeometry x="964" y="162" width="537" height="104" as="geometry" />
        </mxCell>
        <mxCell id="5" value="A" style="whiteSpace=wrap;strokeWidth=2;" vertex="1" parent="1">
          <mxGeometry x="965" y="8" width="534" height="104" as="geometry" />
        </mxCell>
        <mxCell id="6" value="Node A1" style="whiteSpace=wrap;strokeWidth=2;" vertex="1" parent="1">
          <mxGeometry x="1171" y="33" width="121" height="54" as="geometry" />
        </mxCell>
        <mxCell id="7" value="Node A2" style="whiteSpace=wrap;strokeWidth=2;" vertex="1" parent="1">
          <mxGeometry x="1000" y="33" width="121" height="54" as="geometry" />
        </mxCell>
        <mxCell id="8" value="Node A3" style="whiteSpace=wrap;strokeWidth=2;" vertex="1" parent="1">
          <mxGeometry x="1343" y="33" width="121" height="54" as="geometry" />
        </mxCell>
        <mxCell id="9" value="Node B1" style="whiteSpace=wrap;strokeWidth=2;" vertex="1" parent="1">
          <mxGeometry x="999" y="187" width="122" height="54" as="geometry" />
        </mxCell>
        <mxCell id="10" value="Node B2" style="whiteSpace=wrap;strokeWidth=2;" vertex="1" parent="1">
          <mxGeometry x="1171" y="187" width="122" height="54" as="geometry" />
        </mxCell>
        <mxCell id="11" value="Node B3" style="whiteSpace=wrap;strokeWidth=2;" vertex="1" parent="1">
          <mxGeometry x="1343" y="187" width="122" height="54" as="geometry" />
        </mxCell>
        <mxCell id="12" value="Node C1" style="whiteSpace=wrap;strokeWidth=2;" vertex="1" parent="1">
          <mxGeometry x="612" y="316" width="123" height="54" as="geometry" />
        </mxCell>
        <mxCell id="13" value="Node C2" style="whiteSpace=wrap;strokeWidth=2;" vertex="1" parent="1">
          <mxGeometry x="786" y="316" width="123" height="54" as="geometry" />
        </mxCell>
        <mxCell id="14" value="Node C3" style="whiteSpace=wrap;strokeWidth=2;" vertex="1" parent="1">
          <mxGeometry x="669" y="33" width="123" height="54" as="geometry" />
        </mxCell>
        <mxCell id="15" value="Node D1" style="whiteSpace=wrap;strokeWidth=2;" vertex="1" parent="1">
          <mxGeometry x="43" y="187" width="123" height="54" as="geometry" />
        </mxCell>
        <mxCell id="16" value="Node D2" style="whiteSpace=wrap;strokeWidth=2;" vertex="1" parent="1">
          <mxGeometry x="216" y="187" width="123" height="54" as="geometry" />
        </mxCell>
        <mxCell id="17" value="Node D3" style="whiteSpace=wrap;strokeWidth=2;" vertex="1" parent="1">
          <mxGeometry x="389" y="187" width="123" height="54" as="geometry" />
        </mxCell>
        <mxCell id="18" value="" style="curved=1;startArrow=none;endArrow=block;exitX=0.51;exitY=1;entryX=0.5;entryY=0;" edge="1" parent="1" source="6" target="10">
          <mxGeometry relative="1" as="geometry">
            <Array as="points" />
          </mxGeometry>
        </mxCell>
        <mxCell id="19" value="" style="curved=1;startArrow=none;endArrow=block;exitX=0.5;exitY=1;entryX=0.83;entryY=0;" edge="1" parent="1" source="7" target="12">
          <mxGeometry relative="1" as="geometry">
            <Array as="points">
              <mxPoint x="1061" y="112" />
              <mxPoint x="751" y="137" />
              <mxPoint x="751" y="291" />
            </Array>
          </mxGeometry>
        </mxCell>
        <mxCell id="20" value="" style="curved=1;startArrow=none;endArrow=block;exitX=0.5;exitY=1;entryX=0.5;entryY=0;" edge="1" parent="1" source="11" target="13">
          <mxGeometry relative="1" as="geometry">
            <Array as="points">
              <mxPoint x="1404" y="266" />
              <mxPoint x="847" y="291" />
            </Array>
          </mxGeometry>
        </mxCell>
        <mxCell id="21" value="" style="curved=1;startArrow=none;endArrow=block;exitX=0.5;exitY=1;entryX=1;entryY=0.41;" edge="1" parent="1" source="14" target="15">
          <mxGeometry relative="1" as="geometry">
            <Array as="points">
              <mxPoint x="731" y="162" />
            </Array>
          </mxGeometry>
        </mxCell>
        <mxCell id="22" value="" style="curved=1;startArrow=none;endArrow=block;exitX=0.5;exitY=1;entryX=0.3;entryY=0;" edge="1" parent="1" source="16" target="12">
          <mxGeometry relative="1" as="geometry">
            <Array as="points">
              <mxPoint x="278" y="266" />
              <mxPoint x="626" y="291" />
            </Array>
          </mxGeometry>
        </mxCell>
      </root>
    </mxGraphModel>
  </diagram>
</mxfile>
